M48
;DRILL file {KiCad 4.0.1-stable} date 2017/06/30 23:28:00
;FORMAT={-:-/ absolute / inch / decimal}
FMAT,2
INCH,TZ
T1C0.016
T2C0.024
T3C0.031
T4C0.032
T5C0.035
T6C0.039
T7C0.043
T8C0.126
%
G90
G05
M72
T1
X5.37Y-3.315
X5.37Y-4.015
X5.37Y-4.715
X5.37Y-5.415
X5.37Y-6.115
X5.37Y-6.815
X5.37Y-7.515
X5.47Y-3.315
X5.47Y-4.015
X5.47Y-4.715
X5.47Y-5.415
X5.47Y-6.115
X5.47Y-6.815
X5.47Y-7.515
X5.565Y-4.015
X5.57Y-3.315
X5.57Y-4.715
X5.57Y-5.415
X5.57Y-6.115
X5.57Y-6.815
X5.57Y-7.515
X5.67Y-3.315
X5.67Y-4.015
X5.675Y-4.715
X5.675Y-5.415
X5.675Y-6.115
X5.675Y-6.815
X5.675Y-7.515
X5.77Y-3.315
X5.77Y-4.015
X5.77Y-4.715
X5.77Y-5.415
X5.77Y-6.115
X5.77Y-6.815
X5.77Y-7.515
X5.87Y-3.315
X5.87Y-4.015
X5.87Y-4.715
X5.87Y-5.415
X5.87Y-6.115
X5.87Y-6.815
X5.87Y-7.515
X5.97Y-3.315
X5.97Y-4.015
X5.97Y-4.715
X5.97Y-5.415
X5.97Y-6.115
X5.97Y-6.815
X5.97Y-7.515
X6.08Y-6.51
X6.08Y-7.91
X6.085Y-7.21
X6.09Y-3.675
X6.155Y-6.865
X6.165Y-6.505
X6.165Y-7.01
X6.165Y-7.21
X6.17Y-7.905
X6.23Y-3.87
X6.23Y-5.27
X6.235Y-4.57
X6.295Y-7.195
X6.32Y-7.155
X6.33Y-3.87
X6.335Y-3.62
X6.335Y-3.66
X6.335Y-3.7
X6.35Y-7.115
X6.355Y-4.57
X6.38Y-5.27
X6.38Y-7.08
X6.415Y-3.615
X6.415Y-3.66
X6.415Y-3.7
X6.51Y-3.7
X6.56Y-3.315
X6.56Y-4.015
X6.56Y-4.715
X6.56Y-5.415
X6.56Y-6.115
X6.56Y-6.815
X6.56Y-7.515
X6.61Y-3.65
X6.66Y-3.315
X6.66Y-4.015
X6.66Y-4.715
X6.66Y-5.415
X6.66Y-6.115
X6.66Y-6.815
X6.66Y-7.515
X6.76Y-3.315
X6.76Y-4.015
X6.76Y-4.715
X6.76Y-5.415
X6.76Y-6.115
X6.76Y-6.815
X6.76Y-7.515
X6.81Y-2.95
X6.86Y-3.315
X6.86Y-4.015
X6.86Y-4.715
X6.86Y-5.415
X6.86Y-6.115
X6.86Y-6.815
X6.86Y-7.515
X6.91Y-2.915
X6.96Y-3.315
X6.96Y-4.015
X6.96Y-4.715
X6.96Y-5.415
X6.96Y-6.115
X6.96Y-6.815
X6.96Y-7.515
X7.01Y-2.885
X7.06Y-3.315
X7.06Y-4.015
X7.06Y-4.715
X7.06Y-5.415
X7.06Y-6.115
X7.06Y-6.815
X7.06Y-7.515
X7.11Y-2.855
X7.16Y-3.315
X7.16Y-4.015
X7.16Y-4.715
X7.16Y-5.415
X7.16Y-6.115
X7.16Y-6.815
X7.16Y-7.515
X7.235Y-8.18
X7.335Y-5.28
X7.365Y-5.385
X7.365Y-6.085
X7.42Y-5.925
X7.425Y-5.245
X7.47Y-4.695
X7.49Y-5.04
X7.5Y-7.39
X7.5Y-7.465
X7.525Y-5.97
X7.54Y-6.02
X7.55Y-4.41
X7.565Y-4.47
X7.565Y-4.525
X7.565Y-4.615
X7.57Y-7.345
X7.59Y-6.395
X7.59Y-7.775
X7.595Y-5.94
X7.605Y-5.155
X7.605Y-5.245
X7.6307Y-3.5189
X7.6329Y-3.2868
X7.635Y-8.065
X7.635Y-8.105
X7.64Y-5.485
X7.64Y-5.53
X7.665Y-3.97
X7.665Y-5.94
X7.68Y-3.
X7.68Y-4.46
X7.68Y-4.56
X7.685Y-5.53
X7.7Y-5.41
X7.71Y-7.775
X7.715Y-6.785
X7.72Y-7.295
X7.72Y-8.055
X7.72Y-8.105
X7.725Y-5.68
X7.725Y-6.56
X7.725Y-8.15
X7.73Y-6.5
X7.74Y-6.015
X7.755Y-5.73
X7.755Y-6.835
X7.76Y-5.58
X7.7638Y-3.1768
X7.765Y-5.64
X7.8Y-5.36
X7.825Y-4.365
X7.825Y-5.765
X7.825Y-5.94
X7.85Y-5.715
X7.88Y-4.84
X7.8894Y-3.8046
X7.92Y-4.985
X7.92Y-8.16
X7.93Y-6.535
X7.9431Y-3.1053
X7.955Y-4.875
X7.955Y-4.93
X7.985Y-6.535
X7.995Y-5.31
X8.04Y-7.595
X8.055Y-6.525
X8.06Y-4.435
X8.07Y-5.765
X8.115Y-3.55
X8.125Y-6.525
X8.16Y-6.56
X8.26Y-6.56
X8.265Y-5.335
X8.265Y-6.51
X8.27Y-6.89
X8.2872Y-3.8024
X8.29Y-5.765
X8.3Y-4.905
X8.31Y-5.425
X8.335Y-6.565
X8.35Y-6.855
X8.355Y-4.315
X8.355Y-4.36
X8.3625Y-5.
X8.38Y-5.42
X8.405Y-6.57
X8.425Y-4.96
X8.425Y-6.49
X8.43Y-2.915
X8.4325Y-5.005
X8.44Y-5.4
X8.445Y-6.815
X8.45Y-5.905
X8.48Y-4.67
X8.51Y-6.57
X8.515Y-5.44
X8.52Y-5.81
X8.525Y-4.61
X8.525Y-5.875
X8.53Y-4.905
X8.54Y-5.335
X8.55Y-6.785
X8.58Y-6.585
X8.59Y-6.28
X8.5944Y-3.7992
X8.595Y-5.11
X8.595Y-6.11
X8.6Y-4.685
X8.6Y-4.78
X8.6Y-5.44
X8.6Y-6.17
X8.605Y-5.05
X8.615Y-5.49
X8.62Y-6.235
X8.64Y-4.205
X8.64Y-6.58
X8.64Y-6.675
X8.645Y-7.195
X8.6475Y-4.6675
X8.6525Y-4.95
X8.6574Y-3.9012
X8.6625Y-4.5375
X8.7Y-4.95
X8.7Y-5.57
X8.73Y-6.755
X8.735Y-5.485
X8.735Y-5.9
X8.735Y-6.555
X8.74Y-4.61
X8.745Y-6.89
X8.75Y-6.11
X8.775Y-4.8425
X8.78Y-4.67
X8.795Y-4.435
X8.825Y-6.57
X8.835Y-4.87
X8.835Y-6.735
X8.845Y-6.915
X8.865Y-5.3225
X8.88Y-4.955
X8.89Y-6.5
X8.9048Y-3.716
X8.91Y-6.575
X8.92Y-3.21
X8.925Y-4.975
X8.925Y-6.85
X8.934Y-3.939
X8.935Y-6.495
X8.95Y-4.6575
X8.975Y-4.8425
X8.98Y-5.835
X8.98Y-6.49
X8.985Y-3.045
X8.985Y-4.72
X8.985Y-6.295
X8.9925Y-4.8825
X9.015Y-7.465
X9.025Y-7.4
X9.035Y-6.435
X9.05Y-5.405
X9.05Y-5.75
X9.05Y-5.805
X9.06Y-6.89
X9.07Y-4.885
X9.07Y-4.975
X9.085Y-5.675
X9.085Y-6.675
X9.105Y-6.815
X9.115Y-4.25
X9.12Y-4.34
X9.12Y-5.735
X9.12Y-5.85
X9.1272Y-3.9396
X9.13Y-4.645
X9.135Y-4.95
X9.145Y-5.425
X9.15Y-6.78
X9.155Y-6.89
X9.17Y-7.715
X9.185Y-4.73
X9.19Y-5.4025
X9.24Y-3.04
X9.24Y-4.85
X9.25Y-5.71
X9.26Y-5.77
X9.26Y-6.57
X9.2675Y-5.34
X9.29Y-5.105
X9.295Y-6.52
X9.3Y-6.05
X9.3Y-6.45
X9.31Y-4.995
X9.315Y-3.9372
X9.36Y-4.365
X9.365Y-5.4
X9.375Y-6.81
X9.38Y-7.37
X9.4Y-4.34
X9.4Y-4.855
X9.405Y-4.3
X9.405Y-4.92
X9.405Y-4.96
X9.42Y-5.815
X9.425Y-6.725
X9.4325Y-4.1475
X9.435Y-6.52
X9.44Y-5.41
X9.45Y-6.445
X9.46Y-6.755
X9.465Y-4.435
X9.465Y-4.95
X9.52Y-4.545
X9.525Y-6.085
X9.525Y-6.16
X9.53Y-6.385
X9.535Y-4.69
X9.535Y-5.79
X9.535Y-5.87
X9.55Y-4.995
X9.56Y-6.345
X9.56Y-6.425
X9.56Y-6.525
X9.565Y-5.27
X9.57Y-4.655
X9.58Y-5.56
X9.59Y-7.545
X9.595Y-4.955
X9.6018Y-3.936
X9.625Y-5.445
X9.625Y-6.69
X9.63Y-4.885
X9.63Y-4.99
X9.63Y-5.305
X9.635Y-4.72
X9.65Y-5.905
X9.67Y-4.64
X9.69Y-5.48
X9.72Y-4.995
X9.725Y-4.77
X9.735Y-5.41
X9.735Y-5.49
X9.74Y-7.155
X9.74Y-7.37
X9.755Y-4.675
X9.755Y-4.96
X9.755Y-6.77
X9.77Y-3.88
X9.775Y-4.4675
X9.785Y-7.71
X9.815Y-5.355
X9.825Y-6.43
X9.825Y-6.49
X9.825Y-6.535
X9.855Y-6.77
X9.8675Y-4.9725
X9.87Y-4.845
X9.91Y-4.705
X9.92Y-4.92
X9.92Y-5.395
X9.935Y-6.46
X9.935Y-7.57
X9.935Y-8.01
X9.96Y-4.755
X9.965Y-4.885
X9.975Y-4.975
X9.975Y-8.09
X9.985Y-7.625
X9.985Y-7.685
X10.0104Y-3.88
X10.02Y-6.43
X10.025Y-6.535
X10.03Y-6.49
X10.03Y-7.57
X10.065Y-4.935
X10.0812Y-4.0998
X10.085Y-7.625
X10.0872Y-3.2408
X10.15Y-6.47
X10.155Y-7.195
X10.1576Y-3.7296
X10.22Y-6.54
X10.23Y-6.03
X10.23Y-7.195
X10.2725Y-4.6825
X10.28Y-5.61
X10.3Y-4.465
X10.34Y-7.01
X10.385Y-7.12
X10.395Y-6.81
X10.395Y-6.855
X10.4032Y-3.24
X10.42Y-7.695
X10.425Y-6.89
X10.425Y-6.945
X10.4676Y-4.056
X10.475Y-7.65
X10.5372Y-3.7698
X10.5391Y-3.4474
X10.5512Y-2.926
X10.57Y-7.7
X10.61Y-4.565
X10.61Y-5.57
T2
X7.75Y-2.695
X7.75Y-2.7541
X8.82Y-2.695
X8.82Y-2.7541
T3
X5.32Y-2.77
X5.32Y-3.07
X5.32Y-3.17
X5.32Y-3.37
X5.32Y-3.47
X5.32Y-3.77
X5.32Y-3.87
X5.32Y-4.07
X5.32Y-4.17
X5.32Y-4.47
X5.32Y-4.57
X5.32Y-4.77
X5.32Y-4.87
X5.32Y-5.17
X5.32Y-5.27
X5.32Y-5.47
X5.32Y-5.57
X5.32Y-5.87
X5.32Y-5.97
X5.32Y-6.17
X5.32Y-6.27
X5.32Y-6.57
X5.32Y-6.67
X5.32Y-6.87
X5.32Y-6.97
X5.32Y-7.27
X5.32Y-7.37
X5.32Y-7.57
X5.32Y-7.67
X5.32Y-7.97
X5.32Y-8.07
X5.32Y-8.27
X5.42Y-2.77
X5.42Y-3.07
X5.42Y-3.17
X5.42Y-3.37
X5.42Y-3.47
X5.42Y-3.77
X5.42Y-3.87
X5.42Y-4.07
X5.42Y-4.17
X5.42Y-4.47
X5.42Y-4.57
X5.42Y-4.77
X5.42Y-4.87
X5.42Y-5.17
X5.42Y-5.27
X5.42Y-5.47
X5.42Y-5.57
X5.42Y-5.87
X5.42Y-5.97
X5.42Y-6.17
X5.42Y-6.27
X5.42Y-6.57
X5.42Y-6.67
X5.42Y-6.87
X5.42Y-6.97
X5.42Y-7.27
X5.42Y-7.37
X5.42Y-7.57
X5.42Y-7.67
X5.42Y-7.97
X5.42Y-8.07
X5.42Y-8.27
X5.52Y-2.77
X5.52Y-3.07
X5.52Y-3.17
X5.52Y-3.37
X5.52Y-3.47
X5.52Y-3.77
X5.52Y-3.87
X5.52Y-4.07
X5.52Y-4.17
X5.52Y-4.47
X5.52Y-4.57
X5.52Y-4.77
X5.52Y-4.87
X5.52Y-5.17
X5.52Y-5.27
X5.52Y-5.47
X5.52Y-5.57
X5.52Y-5.87
X5.52Y-5.97
X5.52Y-6.17
X5.52Y-6.27
X5.52Y-6.57
X5.52Y-6.67
X5.52Y-6.87
X5.52Y-6.97
X5.52Y-7.27
X5.52Y-7.37
X5.52Y-7.57
X5.52Y-7.67
X5.52Y-7.97
X5.52Y-8.07
X5.52Y-8.27
X5.62Y-2.77
X5.62Y-3.07
X5.62Y-3.17
X5.62Y-3.37
X5.62Y-3.47
X5.62Y-3.77
X5.62Y-3.87
X5.62Y-4.07
X5.62Y-4.17
X5.62Y-4.47
X5.62Y-4.57
X5.62Y-4.77
X5.62Y-4.87
X5.62Y-5.17
X5.62Y-5.27
X5.62Y-5.47
X5.62Y-5.57
X5.62Y-5.87
X5.62Y-5.97
X5.62Y-6.17
X5.62Y-6.27
X5.62Y-6.57
X5.62Y-6.67
X5.62Y-6.87
X5.62Y-6.97
X5.62Y-7.27
X5.62Y-7.37
X5.62Y-7.57
X5.62Y-7.67
X5.62Y-7.97
X5.62Y-8.07
X5.62Y-8.27
X5.72Y-2.77
X5.72Y-3.07
X5.72Y-3.17
X5.72Y-3.37
X5.72Y-3.47
X5.72Y-3.77
X5.72Y-3.87
X5.72Y-4.07
X5.72Y-4.17
X5.72Y-4.47
X5.72Y-4.57
X5.72Y-4.77
X5.72Y-4.87
X5.72Y-5.17
X5.72Y-5.27
X5.72Y-5.47
X5.72Y-5.57
X5.72Y-5.87
X5.72Y-5.97
X5.72Y-6.17
X5.72Y-6.27
X5.72Y-6.57
X5.72Y-6.67
X5.72Y-6.87
X5.72Y-6.97
X5.72Y-7.27
X5.72Y-7.37
X5.72Y-7.57
X5.72Y-7.67
X5.72Y-7.97
X5.72Y-8.07
X5.72Y-8.27
X5.82Y-2.77
X5.82Y-3.07
X5.82Y-3.17
X5.82Y-3.37
X5.82Y-3.47
X5.82Y-3.77
X5.82Y-3.87
X5.82Y-4.07
X5.82Y-4.17
X5.82Y-4.47
X5.82Y-4.57
X5.82Y-4.77
X5.82Y-4.87
X5.82Y-5.17
X5.82Y-5.27
X5.82Y-5.47
X5.82Y-5.57
X5.82Y-5.87
X5.82Y-5.97
X5.82Y-6.17
X5.82Y-6.27
X5.82Y-6.57
X5.82Y-6.67
X5.82Y-6.87
X5.82Y-6.97
X5.82Y-7.27
X5.82Y-7.37
X5.82Y-7.57
X5.82Y-7.67
X5.82Y-7.97
X5.82Y-8.07
X5.82Y-8.27
X5.92Y-2.77
X5.92Y-3.07
X5.92Y-3.17
X5.92Y-3.37
X5.92Y-3.47
X5.92Y-3.77
X5.92Y-3.87
X5.92Y-4.07
X5.92Y-4.17
X5.92Y-4.47
X5.92Y-4.57
X5.92Y-4.77
X5.92Y-4.87
X5.92Y-5.17
X5.92Y-5.27
X5.92Y-5.47
X5.92Y-5.57
X5.92Y-5.87
X5.92Y-5.97
X5.92Y-6.17
X5.92Y-6.27
X5.92Y-6.57
X5.92Y-6.67
X5.92Y-6.87
X5.92Y-6.97
X5.92Y-7.27
X5.92Y-7.37
X5.92Y-7.57
X5.92Y-7.67
X5.92Y-7.97
X5.92Y-8.07
X5.92Y-8.27
X6.02Y-2.77
X6.02Y-3.07
X6.02Y-3.17
X6.02Y-3.37
X6.02Y-3.47
X6.02Y-3.77
X6.02Y-3.87
X6.02Y-4.07
X6.02Y-4.17
X6.02Y-4.47
X6.02Y-4.57
X6.02Y-4.77
X6.02Y-4.87
X6.02Y-5.17
X6.02Y-5.27
X6.02Y-5.47
X6.02Y-5.57
X6.02Y-5.87
X6.02Y-5.97
X6.02Y-6.17
X6.02Y-6.27
X6.02Y-6.57
X6.02Y-6.67
X6.02Y-6.87
X6.02Y-6.97
X6.02Y-7.27
X6.02Y-7.37
X6.02Y-7.57
X6.02Y-7.67
X6.02Y-7.97
X6.02Y-8.07
X6.02Y-8.27
X6.51Y-2.77
X6.51Y-3.07
X6.51Y-3.17
X6.51Y-3.37
X6.51Y-3.47
X6.51Y-3.77
X6.51Y-3.87
X6.51Y-4.07
X6.51Y-4.17
X6.51Y-4.47
X6.51Y-4.57
X6.51Y-4.77
X6.51Y-4.87
X6.51Y-5.17
X6.51Y-5.27
X6.51Y-5.47
X6.51Y-5.57
X6.51Y-5.87
X6.51Y-5.97
X6.51Y-6.17
X6.51Y-6.27
X6.51Y-6.57
X6.51Y-6.67
X6.51Y-6.87
X6.51Y-6.97
X6.51Y-7.27
X6.51Y-7.37
X6.51Y-7.57
X6.51Y-7.67
X6.51Y-7.97
X6.51Y-8.07
X6.51Y-8.27
X6.61Y-2.77
X6.61Y-3.07
X6.61Y-3.17
X6.61Y-3.37
X6.61Y-3.47
X6.61Y-3.77
X6.61Y-3.87
X6.61Y-4.07
X6.61Y-4.17
X6.61Y-4.47
X6.61Y-4.57
X6.61Y-4.77
X6.61Y-4.87
X6.61Y-5.17
X6.61Y-5.27
X6.61Y-5.47
X6.61Y-5.57
X6.61Y-5.87
X6.61Y-5.97
X6.61Y-6.17
X6.61Y-6.27
X6.61Y-6.57
X6.61Y-6.67
X6.61Y-6.87
X6.61Y-6.97
X6.61Y-7.27
X6.61Y-7.37
X6.61Y-7.57
X6.61Y-7.67
X6.61Y-7.97
X6.61Y-8.07
X6.61Y-8.27
X6.71Y-2.77
X6.71Y-3.07
X6.71Y-3.17
X6.71Y-3.37
X6.71Y-3.47
X6.71Y-3.77
X6.71Y-3.87
X6.71Y-4.07
X6.71Y-4.17
X6.71Y-4.47
X6.71Y-4.57
X6.71Y-4.77
X6.71Y-4.87
X6.71Y-5.17
X6.71Y-5.27
X6.71Y-5.47
X6.71Y-5.57
X6.71Y-5.87
X6.71Y-5.97
X6.71Y-6.17
X6.71Y-6.27
X6.71Y-6.57
X6.71Y-6.67
X6.71Y-6.87
X6.71Y-6.97
X6.71Y-7.27
X6.71Y-7.37
X6.71Y-7.57
X6.71Y-7.67
X6.71Y-7.97
X6.71Y-8.07
X6.71Y-8.27
X6.81Y-2.77
X6.81Y-3.07
X6.81Y-3.17
X6.81Y-3.37
X6.81Y-3.47
X6.81Y-3.77
X6.81Y-3.87
X6.81Y-4.07
X6.81Y-4.17
X6.81Y-4.47
X6.81Y-4.57
X6.81Y-4.77
X6.81Y-4.87
X6.81Y-5.17
X6.81Y-5.27
X6.81Y-5.47
X6.81Y-5.57
X6.81Y-5.87
X6.81Y-5.97
X6.81Y-6.17
X6.81Y-6.27
X6.81Y-6.57
X6.81Y-6.67
X6.81Y-6.87
X6.81Y-6.97
X6.81Y-7.27
X6.81Y-7.37
X6.81Y-7.57
X6.81Y-7.67
X6.81Y-7.97
X6.81Y-8.07
X6.81Y-8.27
X6.91Y-2.77
X6.91Y-3.07
X6.91Y-3.17
X6.91Y-3.37
X6.91Y-3.47
X6.91Y-3.77
X6.91Y-3.87
X6.91Y-4.07
X6.91Y-4.17
X6.91Y-4.47
X6.91Y-4.57
X6.91Y-4.77
X6.91Y-4.87
X6.91Y-5.17
X6.91Y-5.27
X6.91Y-5.47
X6.91Y-5.57
X6.91Y-5.87
X6.91Y-5.97
X6.91Y-6.17
X6.91Y-6.27
X6.91Y-6.57
X6.91Y-6.67
X6.91Y-6.87
X6.91Y-6.97
X6.91Y-7.27
X6.91Y-7.37
X6.91Y-7.57
X6.91Y-7.67
X6.91Y-7.97
X6.91Y-8.07
X6.91Y-8.27
X7.01Y-2.77
X7.01Y-3.07
X7.01Y-3.17
X7.01Y-3.37
X7.01Y-3.47
X7.01Y-3.77
X7.01Y-3.87
X7.01Y-4.07
X7.01Y-4.17
X7.01Y-4.47
X7.01Y-4.57
X7.01Y-4.77
X7.01Y-4.87
X7.01Y-5.17
X7.01Y-5.27
X7.01Y-5.47
X7.01Y-5.57
X7.01Y-5.87
X7.01Y-5.97
X7.01Y-6.17
X7.01Y-6.27
X7.01Y-6.57
X7.01Y-6.67
X7.01Y-6.87
X7.01Y-6.97
X7.01Y-7.27
X7.01Y-7.37
X7.01Y-7.57
X7.01Y-7.67
X7.01Y-7.97
X7.01Y-8.07
X7.01Y-8.27
X7.11Y-2.77
X7.11Y-3.07
X7.11Y-3.17
X7.11Y-3.37
X7.11Y-3.47
X7.11Y-3.77
X7.11Y-3.87
X7.11Y-4.07
X7.11Y-4.17
X7.11Y-4.47
X7.11Y-4.57
X7.11Y-4.77
X7.11Y-4.87
X7.11Y-5.17
X7.11Y-5.27
X7.11Y-5.47
X7.11Y-5.57
X7.11Y-5.87
X7.11Y-5.97
X7.11Y-6.17
X7.11Y-6.27
X7.11Y-6.57
X7.11Y-6.67
X7.11Y-6.87
X7.11Y-6.97
X7.11Y-7.27
X7.11Y-7.37
X7.11Y-7.57
X7.11Y-7.67
X7.11Y-7.97
X7.11Y-8.07
X7.11Y-8.27
X7.21Y-2.77
X7.21Y-3.07
X7.21Y-3.17
X7.21Y-3.37
X7.21Y-3.47
X7.21Y-3.77
X7.21Y-3.87
X7.21Y-4.07
X7.21Y-4.17
X7.21Y-4.47
X7.21Y-4.57
X7.21Y-4.77
X7.21Y-4.87
X7.21Y-5.17
X7.21Y-5.27
X7.21Y-5.47
X7.21Y-5.57
X7.21Y-5.87
X7.21Y-5.97
X7.21Y-6.17
X7.21Y-6.27
X7.21Y-6.57
X7.21Y-6.67
X7.21Y-6.87
X7.21Y-6.97
X7.21Y-7.27
X7.21Y-7.37
X7.21Y-7.57
X7.21Y-7.67
X7.21Y-7.97
X7.21Y-8.07
X7.21Y-8.27
X7.665Y-3.655
X7.665Y-3.7534
X7.665Y-4.765
X7.665Y-4.8634
X7.665Y-5.205
X7.665Y-5.3034
X7.69Y-6.345
X7.69Y-6.4434
X7.69Y-7.48
X7.69Y-7.5784
X7.795Y-3.655
X7.795Y-3.955
X7.795Y-4.765
X7.795Y-5.065
X7.795Y-5.205
X7.795Y-5.505
X7.82Y-6.345
X7.82Y-6.645
X7.82Y-7.48
X7.82Y-7.78
X7.895Y-3.655
X7.895Y-3.955
X7.895Y-4.765
X7.895Y-5.065
X7.895Y-5.205
X7.895Y-5.505
X7.92Y-6.345
X7.92Y-6.645
X7.92Y-7.48
X7.92Y-7.78
X7.995Y-3.655
X7.995Y-3.955
X7.995Y-4.765
X7.995Y-5.065
X7.995Y-5.205
X7.995Y-5.505
X8.02Y-6.345
X8.02Y-6.645
X8.02Y-7.48
X8.02Y-7.78
X8.095Y-3.655
X8.095Y-3.955
X8.095Y-4.765
X8.095Y-5.065
X8.095Y-5.205
X8.095Y-5.505
X8.12Y-6.345
X8.12Y-6.645
X8.12Y-7.48
X8.12Y-7.78
X8.195Y-3.655
X8.195Y-3.955
X8.195Y-4.765
X8.195Y-5.065
X8.195Y-5.205
X8.195Y-5.505
X8.21Y-2.99
X8.21Y-3.0884
X8.22Y-6.345
X8.22Y-6.645
X8.22Y-7.48
X8.22Y-7.78
X8.295Y-3.655
X8.295Y-3.955
X8.295Y-4.765
X8.295Y-5.065
X8.295Y-5.205
X8.295Y-5.505
X8.32Y-6.345
X8.32Y-6.645
X8.32Y-7.48
X8.32Y-7.78
X8.34Y-2.99
X8.34Y-3.29
X8.395Y-3.655
X8.395Y-3.955
X8.395Y-4.765
X8.395Y-5.065
X8.395Y-5.205
X8.395Y-5.505
X8.42Y-6.345
X8.42Y-6.645
X8.42Y-7.48
X8.42Y-7.78
X8.44Y-2.99
X8.44Y-3.29
X8.495Y-3.655
X8.495Y-3.955
X8.495Y-4.765
X8.495Y-5.065
X8.495Y-5.205
X8.495Y-5.505
X8.52Y-6.345
X8.52Y-6.645
X8.52Y-7.48
X8.52Y-7.78
X8.54Y-2.99
X8.54Y-3.29
X8.62Y-7.48
X8.62Y-7.78
X8.64Y-2.99
X8.64Y-3.29
X8.7025Y-6.345
X8.7025Y-6.4434
X8.705Y-4.765
X8.705Y-4.8634
X8.705Y-5.205
X8.705Y-5.3034
X8.705Y-5.635
X8.705Y-5.7334
X8.72Y-7.48
X8.72Y-7.78
X8.74Y-2.99
X8.74Y-3.29
X8.835Y-4.765
X8.835Y-5.065
X8.835Y-5.205
X8.835Y-5.505
X8.835Y-5.635
X8.835Y-5.935
X8.835Y-6.345
X8.835Y-6.645
X8.84Y-2.99
X8.84Y-3.29
X8.935Y-4.765
X8.935Y-5.065
X8.935Y-5.205
X8.935Y-5.505
X8.935Y-5.635
X8.935Y-5.935
X8.935Y-6.345
X8.935Y-6.645
X8.94Y-2.99
X8.94Y-3.29
X9.035Y-4.765
X9.035Y-5.065
X9.035Y-5.205
X9.035Y-5.505
X9.035Y-5.635
X9.035Y-5.935
X9.035Y-6.345
X9.035Y-6.645
X9.135Y-4.765
X9.135Y-5.065
X9.135Y-5.205
X9.135Y-5.505
X9.135Y-5.635
X9.135Y-5.935
X9.135Y-6.345
X9.135Y-6.645
X9.155Y-7.48
X9.155Y-7.5784
X9.195Y-3.105
X9.195Y-3.1837
X9.235Y-4.765
X9.235Y-5.065
X9.235Y-5.205
X9.235Y-5.505
X9.235Y-5.635
X9.235Y-5.935
X9.235Y-6.345
X9.235Y-6.645
X9.285Y-7.4775
X9.285Y-7.7775
X9.335Y-4.765
X9.335Y-5.065
X9.335Y-5.205
X9.335Y-5.505
X9.335Y-5.635
X9.335Y-5.935
X9.335Y-6.345
X9.335Y-6.645
X9.385Y-7.4775
X9.385Y-7.7775
X9.435Y-4.765
X9.435Y-5.065
X9.435Y-5.205
X9.435Y-5.505
X9.435Y-5.635
X9.435Y-5.935
X9.435Y-6.345
X9.435Y-6.645
X9.485Y-7.4775
X9.485Y-7.7775
X9.535Y-4.765
X9.535Y-5.065
X9.535Y-5.205
X9.535Y-5.505
X9.555Y-4.265
X9.555Y-4.3634
X9.585Y-7.4775
X9.585Y-7.7775
X9.655Y-6.35
X9.655Y-6.4484
X9.685Y-4.265
X9.685Y-4.565
X9.685Y-7.4775
X9.685Y-7.7775
X9.785Y-4.265
X9.785Y-4.565
X9.785Y-6.35
X9.785Y-6.65
X9.785Y-7.4775
X9.785Y-7.7775
X9.8725Y-5.1475
X9.8725Y-5.4475
X9.885Y-4.265
X9.885Y-4.565
X9.885Y-6.35
X9.885Y-6.65
X9.885Y-7.4775
X9.885Y-7.7775
X9.9725Y-5.1475
X9.9725Y-5.4475
X9.985Y-4.265
X9.985Y-4.565
X9.985Y-6.35
X9.985Y-6.65
X9.985Y-7.4775
X9.985Y-7.7775
X10.0725Y-5.1475
X10.0725Y-5.4475
X10.085Y-4.265
X10.085Y-4.565
X10.085Y-6.35
X10.085Y-6.65
X10.085Y-7.4775
X10.085Y-7.7775
X10.1725Y-5.1475
X10.1725Y-5.4475
X10.185Y-4.265
X10.185Y-4.565
X10.185Y-6.35
X10.185Y-6.65
X10.185Y-7.4775
X10.185Y-7.7775
X10.2313Y-3.9
X10.285Y-4.265
X10.285Y-4.565
X10.285Y-6.35
X10.285Y-6.65
X10.285Y-7.4775
X10.285Y-7.7775
X10.31Y-3.9
X10.385Y-4.265
X10.385Y-4.565
X10.385Y-6.35
X10.385Y-6.65
X10.385Y-7.4775
X10.385Y-7.7775
T4
X6.23Y-2.86
X6.23Y-3.26
X6.23Y-3.56
X6.23Y-3.96
X6.23Y-4.26
X6.23Y-4.66
X6.23Y-4.96
X6.23Y-5.36
X6.23Y-5.66
X6.23Y-6.06
X6.23Y-6.36
X6.23Y-6.76
X6.23Y-7.06
X6.23Y-7.46
X6.23Y-7.76
X6.23Y-8.16
X7.42Y-2.86
X7.42Y-3.26
X7.42Y-3.56
X7.42Y-3.96
X7.42Y-4.26
X7.42Y-4.66
X7.42Y-4.95
X7.42Y-5.35
X7.42Y-5.66
X7.42Y-6.06
X7.42Y-6.36
X7.42Y-6.76
X7.42Y-7.06
X7.42Y-7.46
X7.42Y-7.76
X7.42Y-8.16
X7.82Y-2.93
X7.82Y-3.33
X7.82Y-4.04
X7.82Y-4.44
X7.845Y-5.615
X7.845Y-6.015
X7.845Y-6.735
X7.845Y-7.135
X7.89Y-2.67
X7.89Y-2.755
X7.89Y-2.84
X7.905Y-2.93
X7.905Y-3.33
X7.92Y-7.87
X7.92Y-8.27
X7.93Y-5.615
X7.93Y-6.015
X7.93Y-6.735
X7.93Y-7.135
X7.99Y-2.93
X7.99Y-3.33
X8.Y-4.04
X8.Y-4.44
X8.015Y-5.615
X8.015Y-6.015
X8.015Y-6.735
X8.015Y-7.135
X8.02Y-7.87
X8.02Y-8.27
X8.075Y-2.93
X8.075Y-3.33
X8.1Y-5.615
X8.1Y-6.015
X8.1Y-6.735
X8.1Y-7.135
X8.12Y-7.87
X8.12Y-8.27
X8.18Y-4.04
X8.18Y-4.44
X8.185Y-5.615
X8.185Y-6.015
X8.185Y-6.735
X8.185Y-7.135
X8.22Y-7.87
X8.22Y-8.27
X8.27Y-5.615
X8.27Y-6.015
X8.27Y-6.735
X8.27Y-7.135
X8.29Y-2.67
X8.29Y-2.755
X8.29Y-2.84
X8.32Y-7.87
X8.32Y-8.27
X8.355Y-5.615
X8.355Y-6.015
X8.355Y-6.735
X8.355Y-7.135
X8.36Y-4.04
X8.36Y-4.44
X8.42Y-7.87
X8.42Y-8.27
X8.44Y-6.735
X8.44Y-7.135
X8.445Y-5.615
X8.445Y-6.015
X8.52Y-7.87
X8.52Y-8.27
X8.525Y-6.735
X8.525Y-7.135
X8.54Y-3.38
X8.54Y-3.465
X8.54Y-3.55
X8.61Y-6.735
X8.61Y-7.135
X8.62Y-7.87
X8.62Y-8.27
X8.86Y-4.04
X8.86Y-4.44
X8.94Y-3.38
X8.94Y-3.465
X8.94Y-3.55
X8.96Y-2.67
X8.96Y-2.755
X8.96Y-2.84
X9.04Y-4.04
X9.04Y-4.44
X9.22Y-4.04
X9.22Y-4.44
X9.36Y-2.67
X9.36Y-2.755
X9.36Y-2.84
X9.4Y-4.04
X9.4Y-4.44
X9.44Y-2.995
X9.44Y-3.08
X9.44Y-3.165
X9.44Y-3.25
X9.645Y-5.57
X9.645Y-5.97
X9.825Y-5.57
X9.825Y-5.97
X9.84Y-2.995
X9.84Y-3.08
X9.84Y-3.165
X9.84Y-3.25
X9.875Y-4.6525
X9.875Y-5.0525
X9.93Y-2.925
X9.93Y-3.325
X9.93Y-6.735
X9.93Y-7.135
X9.9725Y-4.6525
X9.9725Y-5.0525
X10.005Y-5.57
X10.005Y-5.97
X10.015Y-6.735
X10.015Y-7.135
X10.0725Y-4.6525
X10.0725Y-5.0525
X10.1Y-6.735
X10.1Y-7.135
X10.1725Y-4.6525
X10.1725Y-5.0525
X10.185Y-5.57
X10.185Y-5.97
X10.185Y-6.735
X10.185Y-7.135
X10.365Y-5.57
X10.365Y-5.97
T5
X6.23Y-2.67
X6.23Y-2.77
X6.23Y-3.37
X6.23Y-3.47
X6.23Y-4.07
X6.23Y-4.17
X6.23Y-4.77
X6.23Y-4.87
X6.23Y-5.47
X6.23Y-5.57
X6.23Y-6.17
X6.23Y-6.27
X6.23Y-6.87
X6.23Y-6.97
X6.23Y-7.57
X6.23Y-7.67
X7.42Y-2.67
X7.42Y-2.77
X7.42Y-3.37
X7.42Y-3.47
X7.42Y-4.07
X7.42Y-4.17
X7.42Y-4.77
X7.42Y-4.87
X7.42Y-5.47
X7.42Y-5.57
X7.42Y-6.17
X7.42Y-6.27
X7.42Y-6.87
X7.42Y-6.97
X7.42Y-7.57
X7.42Y-7.67
X7.82Y-3.415
X7.82Y-3.515
X7.82Y-4.525
X7.82Y-4.625
X7.845Y-6.105
X7.845Y-6.205
X7.845Y-7.27
X7.845Y-7.37
X8.Y-3.415
X8.Y-3.515
X8.Y-4.525
X8.Y-4.625
X8.025Y-6.105
X8.025Y-6.205
X8.025Y-7.27
X8.025Y-7.37
X8.18Y-3.415
X8.18Y-3.515
X8.18Y-4.525
X8.18Y-4.625
X8.205Y-6.105
X8.205Y-6.205
X8.205Y-7.27
X8.205Y-7.37
X8.36Y-3.415
X8.36Y-3.515
X8.36Y-4.525
X8.36Y-4.625
X8.385Y-6.105
X8.385Y-6.205
X8.385Y-7.27
X8.385Y-7.37
X8.565Y-7.27
X8.565Y-7.37
X8.745Y-7.27
X8.745Y-7.37
X8.8475Y-6.105
X8.8475Y-6.205
X8.86Y-4.525
X8.86Y-4.625
X8.925Y-7.27
X8.925Y-7.37
X9.0275Y-6.105
X9.0275Y-6.205
X9.04Y-4.525
X9.04Y-4.625
X9.105Y-7.27
X9.105Y-7.37
X9.21Y-6.105
X9.21Y-6.205
X9.22Y-4.525
X9.22Y-4.625
X9.28Y-6.835
X9.28Y-6.935
X9.39Y-6.105
X9.39Y-6.205
X9.4Y-4.525
X9.4Y-4.625
X9.495Y-6.835
X9.495Y-6.935
X9.645Y-6.105
X9.645Y-6.205
X9.645Y-7.27
X9.645Y-7.37
X9.825Y-6.105
X9.825Y-6.205
X9.825Y-7.27
X9.825Y-7.37
X9.845Y-3.545
X9.915Y-2.68
X9.915Y-2.78
X9.945Y-3.545
X10.005Y-6.105
X10.005Y-6.205
X10.005Y-7.27
X10.005Y-7.37
X10.185Y-6.105
X10.185Y-6.205
X10.185Y-7.27
X10.185Y-7.37
X10.21Y-3.545
X10.31Y-3.545
X10.365Y-6.105
X10.365Y-6.205
T6
X9.195Y-3.575
X9.195Y-3.675
X9.195Y-3.775
X9.575Y-3.575
X9.575Y-3.675
X9.575Y-3.775
T7
X8.3941Y-2.6628
X8.3941Y-2.84
X8.65Y-2.6628
X8.65Y-2.84
X9.4691Y-2.6628
X9.4691Y-2.84
X9.725Y-2.6628
X9.725Y-2.84
T8
X5.0851Y-2.6967
X5.0851Y-8.2085
X10.5969Y-2.6967
X10.5969Y-8.2085
T6
X10.085Y-2.9025G85X10.085Y-2.9813
G05
X10.3094Y-2.8238G85X10.2306Y-2.8238
G05
X10.3094Y-3.06G85X10.2306Y-3.06
G05
T0
M30
