G04 #@! TF.FileFunction,Soldermask,Top*
%FSLAX46Y46*%
G04 Gerber Fmt 4.6, Leading zero omitted, Abs format (unit mm)*
G04 Created by KiCad (PCBNEW 4.0.1-stable) date 2017/06/30 23:27:55*
%MOMM*%
G01*
G04 APERTURE LIST*
%ADD10C,0.100000*%
%ADD11R,2.100000X2.100000*%
%ADD12O,2.100000X2.100000*%
%ADD13C,1.924000*%
%ADD14R,2.000000X2.000000*%
%ADD15C,2.000000*%
%ADD16R,1.600000X1.600000*%
%ADD17C,1.600000*%
%ADD18O,2.000000X2.000000*%
%ADD19R,3.900000X3.900000*%
%ADD20R,2.200000X2.200000*%
%ADD21C,2.200000*%
%ADD22C,2.400000*%
%ADD23C,3.600000*%
G04 APERTURE END LIST*
D10*
D11*
X243205000Y-90805000D03*
D12*
X243205000Y-93345000D03*
X243205000Y-95885000D03*
D13*
X210058000Y-152781000D03*
X210058000Y-142621000D03*
X207899000Y-152781000D03*
X207899000Y-142621000D03*
D14*
X261874000Y-99060000D03*
D15*
X259874000Y-99060000D03*
X194691000Y-121031000D03*
X194691000Y-123531000D03*
X195326000Y-161163000D03*
X195326000Y-163663000D03*
X194691000Y-132207000D03*
X194691000Y-134707000D03*
X221107000Y-143129000D03*
X221107000Y-145629000D03*
X221107000Y-121031000D03*
X221107000Y-123531000D03*
X221043500Y-161163000D03*
X221043500Y-163663000D03*
X245237000Y-161290000D03*
X245237000Y-163790000D03*
X221107000Y-132207000D03*
X221107000Y-134707000D03*
X194691000Y-92837000D03*
X194691000Y-95337000D03*
X242697000Y-108331000D03*
X242697000Y-110831000D03*
X208534000Y-75946000D03*
X208534000Y-78446000D03*
X195326000Y-189992000D03*
X195326000Y-192492000D03*
X232537000Y-189992000D03*
X232537000Y-192492000D03*
D16*
X196850000Y-68453000D03*
D17*
X196850000Y-69953000D03*
D14*
X233553000Y-78867000D03*
D15*
X233553000Y-80867000D03*
D16*
X224028000Y-68453000D03*
D17*
X224028000Y-69953000D03*
D14*
X135128000Y-85598000D03*
D18*
X135128000Y-80518000D03*
D14*
X137668000Y-85598000D03*
D18*
X137668000Y-80518000D03*
D14*
X140208000Y-85598000D03*
D18*
X140208000Y-80518000D03*
D14*
X142748000Y-85598000D03*
D18*
X142748000Y-80518000D03*
D14*
X145288000Y-85598000D03*
D18*
X145288000Y-80518000D03*
D14*
X147828000Y-85598000D03*
D18*
X147828000Y-80518000D03*
D14*
X150368000Y-85598000D03*
D18*
X150368000Y-80518000D03*
D14*
X152908000Y-85598000D03*
D18*
X152908000Y-80518000D03*
D14*
X135128000Y-103378000D03*
D18*
X135128000Y-98298000D03*
D14*
X137668000Y-103378000D03*
D18*
X137668000Y-98298000D03*
D14*
X140208000Y-103378000D03*
D18*
X140208000Y-98298000D03*
D14*
X142748000Y-103378000D03*
D18*
X142748000Y-98298000D03*
D14*
X145288000Y-103378000D03*
D18*
X145288000Y-98298000D03*
D14*
X147828000Y-103378000D03*
D18*
X147828000Y-98298000D03*
D14*
X150368000Y-103378000D03*
D18*
X150368000Y-98298000D03*
D14*
X152908000Y-103378000D03*
D18*
X152908000Y-98298000D03*
D14*
X135128000Y-121158000D03*
D18*
X135128000Y-116078000D03*
D14*
X137668000Y-121158000D03*
D18*
X137668000Y-116078000D03*
D14*
X140208000Y-121158000D03*
D18*
X140208000Y-116078000D03*
D14*
X142748000Y-121158000D03*
D18*
X142748000Y-116078000D03*
D14*
X145288000Y-121158000D03*
D18*
X145288000Y-116078000D03*
D14*
X147828000Y-121158000D03*
D18*
X147828000Y-116078000D03*
D14*
X150368000Y-121158000D03*
D18*
X150368000Y-116078000D03*
D14*
X152908000Y-121158000D03*
D18*
X152908000Y-116078000D03*
D14*
X135128000Y-138938000D03*
D18*
X135128000Y-133858000D03*
D14*
X137668000Y-138938000D03*
D18*
X137668000Y-133858000D03*
D14*
X140208000Y-138938000D03*
D18*
X140208000Y-133858000D03*
D14*
X142748000Y-138938000D03*
D18*
X142748000Y-133858000D03*
D14*
X145288000Y-138938000D03*
D18*
X145288000Y-133858000D03*
D14*
X147828000Y-138938000D03*
D18*
X147828000Y-133858000D03*
D14*
X150368000Y-138938000D03*
D18*
X150368000Y-133858000D03*
D14*
X152908000Y-138938000D03*
D18*
X152908000Y-133858000D03*
D14*
X135128000Y-156718000D03*
D18*
X135128000Y-151638000D03*
D14*
X137668000Y-156718000D03*
D18*
X137668000Y-151638000D03*
D14*
X140208000Y-156718000D03*
D18*
X140208000Y-151638000D03*
D14*
X142748000Y-156718000D03*
D18*
X142748000Y-151638000D03*
D14*
X145288000Y-156718000D03*
D18*
X145288000Y-151638000D03*
D14*
X147828000Y-156718000D03*
D18*
X147828000Y-151638000D03*
D14*
X150368000Y-156718000D03*
D18*
X150368000Y-151638000D03*
D14*
X152908000Y-156718000D03*
D18*
X152908000Y-151638000D03*
D14*
X135128000Y-174498000D03*
D18*
X135128000Y-169418000D03*
D14*
X137668000Y-174498000D03*
D18*
X137668000Y-169418000D03*
D14*
X140208000Y-174498000D03*
D18*
X140208000Y-169418000D03*
D14*
X142748000Y-174498000D03*
D18*
X142748000Y-169418000D03*
D14*
X145288000Y-174498000D03*
D18*
X145288000Y-169418000D03*
D14*
X147828000Y-174498000D03*
D18*
X147828000Y-169418000D03*
D14*
X150368000Y-174498000D03*
D18*
X150368000Y-169418000D03*
D14*
X152908000Y-174498000D03*
D18*
X152908000Y-169418000D03*
D14*
X135128000Y-192278000D03*
D18*
X135128000Y-187198000D03*
D14*
X137668000Y-192278000D03*
D18*
X137668000Y-187198000D03*
D14*
X140208000Y-192278000D03*
D18*
X140208000Y-187198000D03*
D14*
X142748000Y-192278000D03*
D18*
X142748000Y-187198000D03*
D14*
X145288000Y-192278000D03*
D18*
X145288000Y-187198000D03*
D14*
X147828000Y-192278000D03*
D18*
X147828000Y-187198000D03*
D14*
X150368000Y-192278000D03*
D18*
X150368000Y-187198000D03*
D14*
X152908000Y-192278000D03*
D18*
X152908000Y-187198000D03*
D14*
X135128000Y-210058000D03*
D18*
X135128000Y-204978000D03*
D14*
X137668000Y-210058000D03*
D18*
X137668000Y-204978000D03*
D14*
X140208000Y-210058000D03*
D18*
X140208000Y-204978000D03*
D14*
X142748000Y-210058000D03*
D18*
X142748000Y-204978000D03*
D14*
X145288000Y-210058000D03*
D18*
X145288000Y-204978000D03*
D14*
X147828000Y-210058000D03*
D18*
X147828000Y-204978000D03*
D14*
X150368000Y-210058000D03*
D18*
X150368000Y-204978000D03*
D14*
X152908000Y-210058000D03*
D18*
X152908000Y-204978000D03*
D14*
X165354000Y-85598000D03*
D18*
X165354000Y-80518000D03*
D14*
X167894000Y-85598000D03*
D18*
X167894000Y-80518000D03*
D14*
X170434000Y-85598000D03*
D18*
X170434000Y-80518000D03*
D14*
X172974000Y-85598000D03*
D18*
X172974000Y-80518000D03*
D14*
X175514000Y-85598000D03*
D18*
X175514000Y-80518000D03*
D14*
X178054000Y-85598000D03*
D18*
X178054000Y-80518000D03*
D14*
X180594000Y-85598000D03*
D18*
X180594000Y-80518000D03*
D14*
X183134000Y-85598000D03*
D18*
X183134000Y-80518000D03*
D14*
X165354000Y-103378000D03*
D18*
X165354000Y-98298000D03*
D14*
X167894000Y-103378000D03*
D18*
X167894000Y-98298000D03*
D14*
X170434000Y-103378000D03*
D18*
X170434000Y-98298000D03*
D14*
X172974000Y-103378000D03*
D18*
X172974000Y-98298000D03*
D14*
X175514000Y-103378000D03*
D18*
X175514000Y-98298000D03*
D14*
X178054000Y-103378000D03*
D18*
X178054000Y-98298000D03*
D14*
X180594000Y-103378000D03*
D18*
X180594000Y-98298000D03*
D14*
X183134000Y-103378000D03*
D18*
X183134000Y-98298000D03*
D14*
X165354000Y-121158000D03*
D18*
X165354000Y-116078000D03*
D14*
X167894000Y-121158000D03*
D18*
X167894000Y-116078000D03*
D14*
X170434000Y-121158000D03*
D18*
X170434000Y-116078000D03*
D14*
X172974000Y-121158000D03*
D18*
X172974000Y-116078000D03*
D14*
X175514000Y-121158000D03*
D18*
X175514000Y-116078000D03*
D14*
X178054000Y-121158000D03*
D18*
X178054000Y-116078000D03*
D14*
X180594000Y-121158000D03*
D18*
X180594000Y-116078000D03*
D14*
X183134000Y-121158000D03*
D18*
X183134000Y-116078000D03*
D14*
X165354000Y-138938000D03*
D18*
X165354000Y-133858000D03*
D14*
X167894000Y-138938000D03*
D18*
X167894000Y-133858000D03*
D14*
X170434000Y-138938000D03*
D18*
X170434000Y-133858000D03*
D14*
X172974000Y-138938000D03*
D18*
X172974000Y-133858000D03*
D14*
X175514000Y-138938000D03*
D18*
X175514000Y-133858000D03*
D14*
X178054000Y-138938000D03*
D18*
X178054000Y-133858000D03*
D14*
X180594000Y-138938000D03*
D18*
X180594000Y-133858000D03*
D14*
X183134000Y-138938000D03*
D18*
X183134000Y-133858000D03*
D14*
X165354000Y-156718000D03*
D18*
X165354000Y-151638000D03*
D14*
X167894000Y-156718000D03*
D18*
X167894000Y-151638000D03*
D14*
X170434000Y-156718000D03*
D18*
X170434000Y-151638000D03*
D14*
X172974000Y-156718000D03*
D18*
X172974000Y-151638000D03*
D14*
X175514000Y-156718000D03*
D18*
X175514000Y-151638000D03*
D14*
X178054000Y-156718000D03*
D18*
X178054000Y-151638000D03*
D14*
X180594000Y-156718000D03*
D18*
X180594000Y-151638000D03*
D14*
X183134000Y-156718000D03*
D18*
X183134000Y-151638000D03*
D14*
X165354000Y-174498000D03*
D18*
X165354000Y-169418000D03*
D14*
X167894000Y-174498000D03*
D18*
X167894000Y-169418000D03*
D14*
X170434000Y-174498000D03*
D18*
X170434000Y-169418000D03*
D14*
X172974000Y-174498000D03*
D18*
X172974000Y-169418000D03*
D14*
X175514000Y-174498000D03*
D18*
X175514000Y-169418000D03*
D14*
X178054000Y-174498000D03*
D18*
X178054000Y-169418000D03*
D14*
X180594000Y-174498000D03*
D18*
X180594000Y-169418000D03*
D14*
X183134000Y-174498000D03*
D18*
X183134000Y-169418000D03*
D14*
X165354000Y-192278000D03*
D18*
X165354000Y-187198000D03*
D14*
X167894000Y-192278000D03*
D18*
X167894000Y-187198000D03*
D14*
X170434000Y-192278000D03*
D18*
X170434000Y-187198000D03*
D14*
X172974000Y-192278000D03*
D18*
X172974000Y-187198000D03*
D14*
X175514000Y-192278000D03*
D18*
X175514000Y-187198000D03*
D14*
X178054000Y-192278000D03*
D18*
X178054000Y-187198000D03*
D14*
X180594000Y-192278000D03*
D18*
X180594000Y-187198000D03*
D14*
X183134000Y-192278000D03*
D18*
X183134000Y-187198000D03*
D14*
X165354000Y-210058000D03*
D18*
X165354000Y-204978000D03*
D14*
X167894000Y-210058000D03*
D18*
X167894000Y-204978000D03*
D14*
X170434000Y-210058000D03*
D18*
X170434000Y-204978000D03*
D14*
X172974000Y-210058000D03*
D18*
X172974000Y-204978000D03*
D14*
X175514000Y-210058000D03*
D18*
X175514000Y-204978000D03*
D14*
X178054000Y-210058000D03*
D18*
X178054000Y-204978000D03*
D14*
X180594000Y-210058000D03*
D18*
X180594000Y-204978000D03*
D14*
X183134000Y-210058000D03*
D18*
X183134000Y-204978000D03*
D14*
X152908000Y-70358000D03*
D18*
X135128000Y-77978000D03*
X150368000Y-70358000D03*
X137668000Y-77978000D03*
X147828000Y-70358000D03*
X140208000Y-77978000D03*
X145288000Y-70358000D03*
X142748000Y-77978000D03*
X142748000Y-70358000D03*
X145288000Y-77978000D03*
X140208000Y-70358000D03*
X147828000Y-77978000D03*
X137668000Y-70358000D03*
X150368000Y-77978000D03*
X135128000Y-70358000D03*
X152908000Y-77978000D03*
D14*
X152908000Y-88138000D03*
D18*
X135128000Y-95758000D03*
X150368000Y-88138000D03*
X137668000Y-95758000D03*
X147828000Y-88138000D03*
X140208000Y-95758000D03*
X145288000Y-88138000D03*
X142748000Y-95758000D03*
X142748000Y-88138000D03*
X145288000Y-95758000D03*
X140208000Y-88138000D03*
X147828000Y-95758000D03*
X137668000Y-88138000D03*
X150368000Y-95758000D03*
X135128000Y-88138000D03*
X152908000Y-95758000D03*
D14*
X152908000Y-105918000D03*
D18*
X135128000Y-113538000D03*
X150368000Y-105918000D03*
X137668000Y-113538000D03*
X147828000Y-105918000D03*
X140208000Y-113538000D03*
X145288000Y-105918000D03*
X142748000Y-113538000D03*
X142748000Y-105918000D03*
X145288000Y-113538000D03*
X140208000Y-105918000D03*
X147828000Y-113538000D03*
X137668000Y-105918000D03*
X150368000Y-113538000D03*
X135128000Y-105918000D03*
X152908000Y-113538000D03*
D14*
X152908000Y-123698000D03*
D18*
X135128000Y-131318000D03*
X150368000Y-123698000D03*
X137668000Y-131318000D03*
X147828000Y-123698000D03*
X140208000Y-131318000D03*
X145288000Y-123698000D03*
X142748000Y-131318000D03*
X142748000Y-123698000D03*
X145288000Y-131318000D03*
X140208000Y-123698000D03*
X147828000Y-131318000D03*
X137668000Y-123698000D03*
X150368000Y-131318000D03*
X135128000Y-123698000D03*
X152908000Y-131318000D03*
D14*
X152908000Y-141478000D03*
D18*
X135128000Y-149098000D03*
X150368000Y-141478000D03*
X137668000Y-149098000D03*
X147828000Y-141478000D03*
X140208000Y-149098000D03*
X145288000Y-141478000D03*
X142748000Y-149098000D03*
X142748000Y-141478000D03*
X145288000Y-149098000D03*
X140208000Y-141478000D03*
X147828000Y-149098000D03*
X137668000Y-141478000D03*
X150368000Y-149098000D03*
X135128000Y-141478000D03*
X152908000Y-149098000D03*
D14*
X152908000Y-159258000D03*
D18*
X135128000Y-166878000D03*
X150368000Y-159258000D03*
X137668000Y-166878000D03*
X147828000Y-159258000D03*
X140208000Y-166878000D03*
X145288000Y-159258000D03*
X142748000Y-166878000D03*
X142748000Y-159258000D03*
X145288000Y-166878000D03*
X140208000Y-159258000D03*
X147828000Y-166878000D03*
X137668000Y-159258000D03*
X150368000Y-166878000D03*
X135128000Y-159258000D03*
X152908000Y-166878000D03*
D14*
X152908000Y-177038000D03*
D18*
X135128000Y-184658000D03*
X150368000Y-177038000D03*
X137668000Y-184658000D03*
X147828000Y-177038000D03*
X140208000Y-184658000D03*
X145288000Y-177038000D03*
X142748000Y-184658000D03*
X142748000Y-177038000D03*
X145288000Y-184658000D03*
X140208000Y-177038000D03*
X147828000Y-184658000D03*
X137668000Y-177038000D03*
X150368000Y-184658000D03*
X135128000Y-177038000D03*
X152908000Y-184658000D03*
D14*
X152908000Y-194818000D03*
D18*
X135128000Y-202438000D03*
X150368000Y-194818000D03*
X137668000Y-202438000D03*
X147828000Y-194818000D03*
X140208000Y-202438000D03*
X145288000Y-194818000D03*
X142748000Y-202438000D03*
X142748000Y-194818000D03*
X145288000Y-202438000D03*
X140208000Y-194818000D03*
X147828000Y-202438000D03*
X137668000Y-194818000D03*
X150368000Y-202438000D03*
X135128000Y-194818000D03*
X152908000Y-202438000D03*
D14*
X183134000Y-70358000D03*
D18*
X165354000Y-77978000D03*
X180594000Y-70358000D03*
X167894000Y-77978000D03*
X178054000Y-70358000D03*
X170434000Y-77978000D03*
X175514000Y-70358000D03*
X172974000Y-77978000D03*
X172974000Y-70358000D03*
X175514000Y-77978000D03*
X170434000Y-70358000D03*
X178054000Y-77978000D03*
X167894000Y-70358000D03*
X180594000Y-77978000D03*
X165354000Y-70358000D03*
X183134000Y-77978000D03*
D14*
X183134000Y-88138000D03*
D18*
X165354000Y-95758000D03*
X180594000Y-88138000D03*
X167894000Y-95758000D03*
X178054000Y-88138000D03*
X170434000Y-95758000D03*
X175514000Y-88138000D03*
X172974000Y-95758000D03*
X172974000Y-88138000D03*
X175514000Y-95758000D03*
X170434000Y-88138000D03*
X178054000Y-95758000D03*
X167894000Y-88138000D03*
X180594000Y-95758000D03*
X165354000Y-88138000D03*
X183134000Y-95758000D03*
D14*
X183134000Y-105918000D03*
D18*
X165354000Y-113538000D03*
X180594000Y-105918000D03*
X167894000Y-113538000D03*
X178054000Y-105918000D03*
X170434000Y-113538000D03*
X175514000Y-105918000D03*
X172974000Y-113538000D03*
X172974000Y-105918000D03*
X175514000Y-113538000D03*
X170434000Y-105918000D03*
X178054000Y-113538000D03*
X167894000Y-105918000D03*
X180594000Y-113538000D03*
X165354000Y-105918000D03*
X183134000Y-113538000D03*
D14*
X183134000Y-123698000D03*
D18*
X165354000Y-131318000D03*
X180594000Y-123698000D03*
X167894000Y-131318000D03*
X178054000Y-123698000D03*
X170434000Y-131318000D03*
X175514000Y-123698000D03*
X172974000Y-131318000D03*
X172974000Y-123698000D03*
X175514000Y-131318000D03*
X170434000Y-123698000D03*
X178054000Y-131318000D03*
X167894000Y-123698000D03*
X180594000Y-131318000D03*
X165354000Y-123698000D03*
X183134000Y-131318000D03*
D14*
X183134000Y-141478000D03*
D18*
X165354000Y-149098000D03*
X180594000Y-141478000D03*
X167894000Y-149098000D03*
X178054000Y-141478000D03*
X170434000Y-149098000D03*
X175514000Y-141478000D03*
X172974000Y-149098000D03*
X172974000Y-141478000D03*
X175514000Y-149098000D03*
X170434000Y-141478000D03*
X178054000Y-149098000D03*
X167894000Y-141478000D03*
X180594000Y-149098000D03*
X165354000Y-141478000D03*
X183134000Y-149098000D03*
D14*
X183134000Y-159258000D03*
D18*
X165354000Y-166878000D03*
X180594000Y-159258000D03*
X167894000Y-166878000D03*
X178054000Y-159258000D03*
X170434000Y-166878000D03*
X175514000Y-159258000D03*
X172974000Y-166878000D03*
X172974000Y-159258000D03*
X175514000Y-166878000D03*
X170434000Y-159258000D03*
X178054000Y-166878000D03*
X167894000Y-159258000D03*
X180594000Y-166878000D03*
X165354000Y-159258000D03*
X183134000Y-166878000D03*
D14*
X183134000Y-177038000D03*
D18*
X165354000Y-184658000D03*
X180594000Y-177038000D03*
X167894000Y-184658000D03*
X178054000Y-177038000D03*
X170434000Y-184658000D03*
X175514000Y-177038000D03*
X172974000Y-184658000D03*
X172974000Y-177038000D03*
X175514000Y-184658000D03*
X170434000Y-177038000D03*
X178054000Y-184658000D03*
X167894000Y-177038000D03*
X180594000Y-184658000D03*
X165354000Y-177038000D03*
X183134000Y-184658000D03*
D14*
X183134000Y-194818000D03*
D18*
X165354000Y-202438000D03*
X180594000Y-194818000D03*
X167894000Y-202438000D03*
X178054000Y-194818000D03*
X170434000Y-202438000D03*
X175514000Y-194818000D03*
X172974000Y-202438000D03*
X172974000Y-194818000D03*
X175514000Y-202438000D03*
X170434000Y-194818000D03*
X178054000Y-202438000D03*
X167894000Y-194818000D03*
X180594000Y-202438000D03*
X165354000Y-194818000D03*
X183134000Y-202438000D03*
D14*
X258381500Y-130746500D03*
D18*
X250761500Y-138366500D03*
X255841500Y-130746500D03*
X253301500Y-138366500D03*
X253301500Y-130746500D03*
X255841500Y-138366500D03*
X250761500Y-130746500D03*
X258381500Y-138366500D03*
D19*
X260858000Y-77724000D03*
X260858000Y-71724000D03*
X256158000Y-74724000D03*
D20*
X259334000Y-90043000D03*
D21*
X261874000Y-90043000D03*
D20*
X198628000Y-114935000D03*
D21*
X198628000Y-117475000D03*
D20*
X203200000Y-114935000D03*
D21*
X203200000Y-117475000D03*
D20*
X207772000Y-114935000D03*
D21*
X207772000Y-117475000D03*
D20*
X212344000Y-114935000D03*
D21*
X212344000Y-117475000D03*
D20*
X225044000Y-114935000D03*
D21*
X225044000Y-117475000D03*
D20*
X229616000Y-114935000D03*
D21*
X229616000Y-117475000D03*
D20*
X234188000Y-114935000D03*
D21*
X234188000Y-117475000D03*
D20*
X238760000Y-114935000D03*
D21*
X238760000Y-117475000D03*
D20*
X263271000Y-155067000D03*
D21*
X263271000Y-157607000D03*
D20*
X258699000Y-155067000D03*
D21*
X258699000Y-157607000D03*
D20*
X254127000Y-155067000D03*
D21*
X254127000Y-157607000D03*
D20*
X249555000Y-155067000D03*
D21*
X249555000Y-157607000D03*
D20*
X212979000Y-157607000D03*
D21*
X212979000Y-155067000D03*
D20*
X208407000Y-157607000D03*
D21*
X208407000Y-155067000D03*
D20*
X203835000Y-157607000D03*
D21*
X203835000Y-155067000D03*
D20*
X199263000Y-157607000D03*
D21*
X199263000Y-155067000D03*
D20*
X238506000Y-155067000D03*
D21*
X238506000Y-157607000D03*
D20*
X233934000Y-155067000D03*
D21*
X233934000Y-157607000D03*
D20*
X229298500Y-155067000D03*
D21*
X229298500Y-157607000D03*
D20*
X224726500Y-155067000D03*
D21*
X224726500Y-157607000D03*
D20*
X199263000Y-184658000D03*
D21*
X199263000Y-187198000D03*
D20*
X203835000Y-184658000D03*
D21*
X203835000Y-187198000D03*
D20*
X208407000Y-184658000D03*
D21*
X208407000Y-187198000D03*
D20*
X212979000Y-184658000D03*
D21*
X212979000Y-187198000D03*
D20*
X217551000Y-184658000D03*
D21*
X217551000Y-187198000D03*
D20*
X222123000Y-184658000D03*
D21*
X222123000Y-187198000D03*
D20*
X226695000Y-184658000D03*
D21*
X226695000Y-187198000D03*
D20*
X231267000Y-184658000D03*
D21*
X231267000Y-187198000D03*
D20*
X241173000Y-176149000D03*
D21*
X241173000Y-173609000D03*
D20*
X235712000Y-176149000D03*
D21*
X235712000Y-173609000D03*
D20*
X244983000Y-155067000D03*
D21*
X244983000Y-157607000D03*
D20*
X198628000Y-86741000D03*
D21*
X198628000Y-89281000D03*
D20*
X203200000Y-86741000D03*
D21*
X203200000Y-89281000D03*
D20*
X207772000Y-86741000D03*
D21*
X207772000Y-89281000D03*
D20*
X212344000Y-86741000D03*
D21*
X212344000Y-89281000D03*
D20*
X252603000Y-90043000D03*
D21*
X250063000Y-90043000D03*
D20*
X251841000Y-68072000D03*
D21*
X251841000Y-70612000D03*
D20*
X158242000Y-192278000D03*
D21*
X158242000Y-194818000D03*
D20*
X158242000Y-174498000D03*
D21*
X158242000Y-177038000D03*
D20*
X158242000Y-156718000D03*
D21*
X158242000Y-159258000D03*
D20*
X158242000Y-138938000D03*
D21*
X158242000Y-141478000D03*
D20*
X158242000Y-121158000D03*
D21*
X158242000Y-123698000D03*
D20*
X158242000Y-103378000D03*
D21*
X158242000Y-105918000D03*
D20*
X158242000Y-85598000D03*
D21*
X158242000Y-88138000D03*
D20*
X158242000Y-67818000D03*
D21*
X158242000Y-70358000D03*
D20*
X188468000Y-67818000D03*
D21*
X188468000Y-70358000D03*
D20*
X188468000Y-85598000D03*
D21*
X188468000Y-88138000D03*
D20*
X188468000Y-103378000D03*
D21*
X188468000Y-105918000D03*
D20*
X188468000Y-121158000D03*
D21*
X188468000Y-123698000D03*
D20*
X188468000Y-138938000D03*
D21*
X188468000Y-141478000D03*
D20*
X188468000Y-156718000D03*
D21*
X188468000Y-159258000D03*
D20*
X188468000Y-174498000D03*
D21*
X188468000Y-177038000D03*
D20*
X188468000Y-192278000D03*
D21*
X188468000Y-194818000D03*
D22*
X219710000Y-67636000D03*
X219710000Y-72136000D03*
X213210000Y-67636000D03*
X213210000Y-72136000D03*
X247015000Y-67636000D03*
X247015000Y-72136000D03*
X240515000Y-67636000D03*
X240515000Y-72136000D03*
D13*
X198628000Y-112776000D03*
X198628000Y-102616000D03*
X203200000Y-112776000D03*
X203200000Y-102616000D03*
X207772000Y-112776000D03*
X207772000Y-102616000D03*
X212344000Y-112776000D03*
X212344000Y-102616000D03*
X225044000Y-112776000D03*
X225044000Y-102616000D03*
X229616000Y-112776000D03*
X229616000Y-102616000D03*
X234188000Y-112776000D03*
X234188000Y-102616000D03*
X238760000Y-112776000D03*
X238760000Y-102616000D03*
X263271000Y-151638000D03*
X263271000Y-141478000D03*
X258699000Y-151638000D03*
X258699000Y-141478000D03*
X254127000Y-151638000D03*
X254127000Y-141478000D03*
X249555000Y-151638000D03*
X249555000Y-141478000D03*
X205740000Y-142621000D03*
X205740000Y-152781000D03*
X203581000Y-142621000D03*
X203581000Y-152781000D03*
X201422000Y-152781000D03*
X201422000Y-142621000D03*
X199263000Y-152781000D03*
X199263000Y-142621000D03*
X212217000Y-152781000D03*
X212217000Y-142621000D03*
X199263000Y-181229000D03*
X199263000Y-171069000D03*
X201422000Y-181229000D03*
X201422000Y-171069000D03*
X203581000Y-181229000D03*
X203581000Y-171069000D03*
X205740000Y-181229000D03*
X205740000Y-171069000D03*
X207899000Y-181229000D03*
X207899000Y-171069000D03*
X210058000Y-181229000D03*
X210058000Y-171069000D03*
X212217000Y-181229000D03*
X212217000Y-171069000D03*
X214376000Y-181229000D03*
X214376000Y-171069000D03*
X216535000Y-181229000D03*
X216535000Y-171069000D03*
X218694000Y-181229000D03*
X218694000Y-171069000D03*
X244983000Y-151638000D03*
X244983000Y-141478000D03*
X252222000Y-74295000D03*
X252222000Y-84455000D03*
X258381500Y-118173500D03*
X258381500Y-128333500D03*
X255841500Y-118173500D03*
X255841500Y-128333500D03*
X253301500Y-118173500D03*
X253301500Y-128333500D03*
X198628000Y-84582000D03*
X198628000Y-74422000D03*
X200787000Y-84582000D03*
X200787000Y-74422000D03*
X202946000Y-84582000D03*
X202946000Y-74422000D03*
X205105000Y-84582000D03*
X205105000Y-74422000D03*
X250825000Y-118173500D03*
X250825000Y-128333500D03*
X200406000Y-67818000D03*
X210566000Y-67818000D03*
X249936000Y-78232000D03*
X239776000Y-78232000D03*
X249936000Y-82550000D03*
X239776000Y-82550000D03*
X216916000Y-88011000D03*
X227076000Y-88011000D03*
X216916000Y-90170000D03*
X227076000Y-90170000D03*
X216916000Y-85852000D03*
X227076000Y-85852000D03*
X249936000Y-76073000D03*
X239776000Y-76073000D03*
X227584000Y-67818000D03*
X237744000Y-67818000D03*
X227584000Y-69977000D03*
X237744000Y-69977000D03*
X237744000Y-72136000D03*
X227584000Y-72136000D03*
X249936000Y-80391000D03*
X239776000Y-80391000D03*
X201168000Y-210058000D03*
X201168000Y-199898000D03*
X203708000Y-210058000D03*
X203708000Y-199898000D03*
X206248000Y-210058000D03*
X206248000Y-199898000D03*
X208788000Y-210058000D03*
X208788000Y-199898000D03*
X211328000Y-210058000D03*
X211328000Y-199898000D03*
X213868000Y-210058000D03*
X213868000Y-199898000D03*
X216408000Y-210058000D03*
X216408000Y-199898000D03*
X218948000Y-210058000D03*
X218948000Y-199898000D03*
X158242000Y-197104000D03*
X158242000Y-207264000D03*
X158242000Y-179324000D03*
X158242000Y-189484000D03*
X158242000Y-161544000D03*
X158242000Y-171704000D03*
X158242000Y-143764000D03*
X158242000Y-153924000D03*
X158242000Y-125984000D03*
X158242000Y-136144000D03*
X158242000Y-108204000D03*
X158242000Y-118364000D03*
X158242000Y-90424000D03*
X158242000Y-100584000D03*
X158242000Y-72644000D03*
X158242000Y-82804000D03*
X188468000Y-72644000D03*
X188468000Y-82804000D03*
X188468000Y-90424000D03*
X188468000Y-100584000D03*
X188468000Y-108204000D03*
X188468000Y-118364000D03*
X188468000Y-125730000D03*
X188468000Y-135890000D03*
X188468000Y-143764000D03*
X188468000Y-153924000D03*
X188468000Y-161544000D03*
X188468000Y-171704000D03*
X188468000Y-179324000D03*
X188468000Y-189484000D03*
X188468000Y-197104000D03*
X188468000Y-207264000D03*
D11*
X233553000Y-90805000D03*
D12*
X233553000Y-93345000D03*
X233553000Y-95885000D03*
D14*
X197993000Y-128651000D03*
D18*
X215773000Y-121031000D03*
X200533000Y-128651000D03*
X213233000Y-121031000D03*
X203073000Y-128651000D03*
X210693000Y-121031000D03*
X205613000Y-128651000D03*
X208153000Y-121031000D03*
X208153000Y-128651000D03*
X205613000Y-121031000D03*
X210693000Y-128651000D03*
X203073000Y-121031000D03*
X213233000Y-128651000D03*
X200533000Y-121031000D03*
X215773000Y-128651000D03*
X197993000Y-121031000D03*
D14*
X198628000Y-168783000D03*
D18*
X216408000Y-161163000D03*
X201168000Y-168783000D03*
X213868000Y-161163000D03*
X203708000Y-168783000D03*
X211328000Y-161163000D03*
X206248000Y-168783000D03*
X208788000Y-161163000D03*
X208788000Y-168783000D03*
X206248000Y-161163000D03*
X211328000Y-168783000D03*
X203708000Y-161163000D03*
X213868000Y-168783000D03*
X201168000Y-161163000D03*
X216408000Y-168783000D03*
X198628000Y-161163000D03*
D14*
X197993000Y-139827000D03*
D18*
X215773000Y-132207000D03*
X200533000Y-139827000D03*
X213233000Y-132207000D03*
X203073000Y-139827000D03*
X210693000Y-132207000D03*
X205613000Y-139827000D03*
X208153000Y-132207000D03*
X208153000Y-139827000D03*
X205613000Y-132207000D03*
X210693000Y-139827000D03*
X203073000Y-132207000D03*
X213233000Y-139827000D03*
X200533000Y-132207000D03*
X215773000Y-139827000D03*
X197993000Y-132207000D03*
D14*
X224409000Y-150749000D03*
D18*
X239649000Y-143129000D03*
X226949000Y-150749000D03*
X237109000Y-143129000D03*
X229489000Y-150749000D03*
X234569000Y-143129000D03*
X232029000Y-150749000D03*
X232029000Y-143129000D03*
X234569000Y-150749000D03*
X229489000Y-143129000D03*
X237109000Y-150749000D03*
X226949000Y-143129000D03*
X239649000Y-150749000D03*
X224409000Y-143129000D03*
D14*
X224409000Y-128651000D03*
D18*
X242189000Y-121031000D03*
X226949000Y-128651000D03*
X239649000Y-121031000D03*
X229489000Y-128651000D03*
X237109000Y-121031000D03*
X232029000Y-128651000D03*
X234569000Y-121031000D03*
X234569000Y-128651000D03*
X232029000Y-121031000D03*
X237109000Y-128651000D03*
X229489000Y-121031000D03*
X239649000Y-128651000D03*
X226949000Y-121031000D03*
X242189000Y-128651000D03*
X224409000Y-121031000D03*
D14*
X224409000Y-168783000D03*
D18*
X239649000Y-161163000D03*
X226949000Y-168783000D03*
X237109000Y-161163000D03*
X229489000Y-168783000D03*
X234569000Y-161163000D03*
X232029000Y-168783000D03*
X232029000Y-161163000D03*
X234569000Y-168783000D03*
X229489000Y-161163000D03*
X237109000Y-168783000D03*
X226949000Y-161163000D03*
X239649000Y-168783000D03*
X224409000Y-161163000D03*
D14*
X248539000Y-168910000D03*
D18*
X263779000Y-161290000D03*
X251079000Y-168910000D03*
X261239000Y-161290000D03*
X253619000Y-168910000D03*
X258699000Y-161290000D03*
X256159000Y-168910000D03*
X256159000Y-161290000D03*
X258699000Y-168910000D03*
X253619000Y-161290000D03*
X261239000Y-168910000D03*
X251079000Y-161290000D03*
X263779000Y-168910000D03*
X248539000Y-161290000D03*
D14*
X224409000Y-139827000D03*
D18*
X242189000Y-132207000D03*
X226949000Y-139827000D03*
X239649000Y-132207000D03*
X229489000Y-139827000D03*
X237109000Y-132207000D03*
X232029000Y-139827000D03*
X234569000Y-132207000D03*
X234569000Y-139827000D03*
X232029000Y-132207000D03*
X237109000Y-139827000D03*
X229489000Y-132207000D03*
X239649000Y-139827000D03*
X226949000Y-132207000D03*
X242189000Y-139827000D03*
X224409000Y-132207000D03*
D14*
X197993000Y-100457000D03*
D18*
X215773000Y-92837000D03*
X200533000Y-100457000D03*
X213233000Y-92837000D03*
X203073000Y-100457000D03*
X210693000Y-92837000D03*
X205613000Y-100457000D03*
X208153000Y-92837000D03*
X208153000Y-100457000D03*
X205613000Y-92837000D03*
X210693000Y-100457000D03*
X203073000Y-92837000D03*
X213233000Y-100457000D03*
X200533000Y-92837000D03*
X215773000Y-100457000D03*
X197993000Y-92837000D03*
D14*
X245999000Y-115951000D03*
D18*
X263779000Y-108331000D03*
X248539000Y-115951000D03*
X261239000Y-108331000D03*
X251079000Y-115951000D03*
X258699000Y-108331000D03*
X253619000Y-115951000D03*
X256159000Y-108331000D03*
X256159000Y-115951000D03*
X253619000Y-108331000D03*
X258699000Y-115951000D03*
X251079000Y-108331000D03*
X261239000Y-115951000D03*
X248539000Y-108331000D03*
X263779000Y-115951000D03*
X245999000Y-108331000D03*
D14*
X211836000Y-83566000D03*
D18*
X227076000Y-75946000D03*
X214376000Y-83566000D03*
X224536000Y-75946000D03*
X216916000Y-83566000D03*
X221996000Y-75946000D03*
X219456000Y-83566000D03*
X219456000Y-75946000D03*
X221996000Y-83566000D03*
X216916000Y-75946000D03*
X224536000Y-83566000D03*
X214376000Y-75946000D03*
X227076000Y-83566000D03*
X211836000Y-75946000D03*
D14*
X198628000Y-197612000D03*
D18*
X221488000Y-189992000D03*
X201168000Y-197612000D03*
X218948000Y-189992000D03*
X203708000Y-197612000D03*
X216408000Y-189992000D03*
X206248000Y-197612000D03*
X213868000Y-189992000D03*
X208788000Y-197612000D03*
X211328000Y-189992000D03*
X211328000Y-197612000D03*
X208788000Y-189992000D03*
X213868000Y-197612000D03*
X206248000Y-189992000D03*
X216408000Y-197612000D03*
X203708000Y-189992000D03*
X218948000Y-197612000D03*
X201168000Y-189992000D03*
X221488000Y-197612000D03*
X198628000Y-189992000D03*
D14*
X235839000Y-197548500D03*
D18*
X263779000Y-189928500D03*
X238379000Y-197548500D03*
X261239000Y-189928500D03*
X240919000Y-197548500D03*
X258699000Y-189928500D03*
X243459000Y-197548500D03*
X256159000Y-189928500D03*
X245999000Y-197548500D03*
X253619000Y-189928500D03*
X248539000Y-197548500D03*
X251079000Y-189928500D03*
X251079000Y-197548500D03*
X248539000Y-189928500D03*
X253619000Y-197548500D03*
X245999000Y-189928500D03*
X256159000Y-197548500D03*
X243459000Y-189928500D03*
X258699000Y-197548500D03*
X240919000Y-189928500D03*
X261239000Y-197548500D03*
X238379000Y-189928500D03*
X263779000Y-197548500D03*
X235839000Y-189928500D03*
D20*
X244983000Y-184658000D03*
D21*
X244983000Y-187198000D03*
D20*
X249555000Y-184658000D03*
D21*
X249555000Y-187198000D03*
D20*
X254127000Y-184658000D03*
D21*
X254127000Y-187198000D03*
D20*
X258699000Y-184658000D03*
D21*
X258699000Y-187198000D03*
D13*
X252222000Y-171069000D03*
X252222000Y-181229000D03*
X254381000Y-171069000D03*
X254381000Y-181229000D03*
X256540000Y-171069000D03*
X256540000Y-181229000D03*
X258699000Y-171069000D03*
X258699000Y-181229000D03*
X214503000Y-152781000D03*
X214503000Y-142621000D03*
X200406000Y-69977000D03*
X210566000Y-69977000D03*
X210566000Y-72136000D03*
X200406000Y-72136000D03*
D23*
X269162000Y-68495000D03*
X129162000Y-68495000D03*
X129162000Y-208495000D03*
X269162000Y-208495000D03*
M02*
